# xmcd CD database file
#
# Track frame offsets:
#	150
#	47824
#	80841
#	95163
#	101307
#	116535
#	144389
#	160871
#	174063
#	186037
#	203917
#	229437
#	240061
#	252559
#	270133
#	282540
#
# Disc length: 3919 seconds
#
# Revision: 1
# Processed by: cddbd v1.5.2PL0 Copyright (c) Steve Scherf et al.
# Submitted via: jetAudio 7
#
DISCID=d60f4d10
DTITLE=Jimi Hendrix - Purple Haze [Black Box] [2 CD] - Disc 1
DYEAR=1996
DGENRE=Rock
TTITLE0=Red House
TTITLE1=Voodoo Chile [Slight Return]
TTITLE2=Little Wing
TTITLE3=Wild Thing
TTITLE4=Bleeding Heart [Short Version]
TTITLE5=Night Life
TTITLE6=Fire
TTITLE7=Room Full Of Mirrors [Short Version]
TTITLE8=Psycho
TTITLE9=Hot Trigger
TTITLE10=Free Spirit
TTITLE11=Groove Maker
TTITLE12=Voice In The Wind
TTITLE13=Suspicious
TTITLE14=She's A Fox
TTITLE15=Two And One Goes
EXTD=
EXTT0=
EXTT1=
EXTT2=
EXTT3=
EXTT4=
EXTT5=
EXTT6=
EXTT7=
EXTT8=
EXTT9=
EXTT10=
EXTT11=
EXTT12=
EXTT13=
EXTT14=
EXTT15=
PLAYORDER=
